<?xml version="1.0" encoding="utf-8"?>
<!-- Generator: Adobe Illustrator 15.0.0, SVG Export Plug-In . SVG Version: 6.00 Build 0)  -->
<!DOCTYPE svg PUBLIC "-//W3C//DTD SVG 1.1//EN" "http://www.w3.org/Graphics/SVG/1.1/DTD/svg11.dtd">
<svg version="1.1" id="Layer_1" xmlns="http://www.w3.org/2000/svg" xmlns:xlink="http://www.w3.org/1999/xlink" x="0px" y="0px"
	 width="80px" height="80px" viewBox="0 0 80 80" enable-background="new 0 0 80 80" xml:space="preserve">
<g>
	<g>
		<path fill="#DCBD23" d="M43.444,62.109c0,1.07-0.317,1.931-0.951,2.585c-0.634,0.653-1.485,0.979-2.555,0.979
			c-0.99,0-1.802-0.347-2.435-1.04c-0.635-0.691-0.951-1.534-0.951-2.524c0-1.068,0.316-1.96,0.951-2.673
			c0.633-0.713,1.464-1.068,2.494-1.068c1.069,0,1.91,0.355,2.525,1.068C43.138,60.149,43.444,61.041,43.444,62.109z M42.85,25.044
			l-0.831,28.572h-4.04l-0.831-28.572H42.85z"/>
	</g>
	<path fill="#DCBD23" d="M71.278,74H8.735c-2.041,0-3.69-0.754-4.523-2.168c-0.834-1.415-0.745-3.221,0.244-5.006l13.058-23.573
		c1.467-2.649,3.888-6.967,5.378-9.604l12.974-22.947c1.009-1.786,2.515-2.808,4.131-2.808c1.623,0,3.131,1.031,4.136,2.828
		l31.403,56.137c0.995,1.782,1.092,3.559,0.263,4.973S73.321,74,71.278,74z M39.996,11.196c-0.381,0-0.863,0.434-1.259,1.133
		L25.764,35.28c-1.485,2.629-3.899,6.943-5.362,9.586L7.343,68.453c-0.402,0.726-0.51,1.478-0.288,1.854
		C7.276,70.684,7.904,71,8.735,71h62.543c0.829,0,1.454-0.314,1.673-0.688c0.218-0.371,0.107-1.072-0.298-1.795l-31.4-56.159
		C40.859,11.656,40.378,11.196,39.996,11.196z"/>
</g>
</svg>
